<?xml version="1.0" encoding="UTF-8" standalone="no"?>
<svg
   height="24px"
   viewBox="0 0 24 24"
   width="24px"
   fill="#000000"
   version="1.1"
   id="svg2"
   sodipodi:docname="icon.svg"
   inkscape:export-filename=".\icon128.png"
   inkscape:export-xdpi="512"
   inkscape:export-ydpi="512"
   inkscape:version="1.3 (0e150ed6c4, 2023-07-21)"
   xmlns:inkscape="http://www.inkscape.org/namespaces/inkscape"
   xmlns:sodipodi="http://sodipodi.sourceforge.net/DTD/sodipodi-0.dtd"
   xmlns="http://www.w3.org/2000/svg"
   xmlns:svg="http://www.w3.org/2000/svg">
  <defs
     id="defs2" />
  <sodipodi:namedview
     id="namedview2"
     pagecolor="#ffffff"
     bordercolor="#666666"
     borderopacity="1.0"
     inkscape:showpageshadow="2"
     inkscape:pageopacity="0.0"
     inkscape:pagecheckerboard="0"
     inkscape:deskcolor="#d1d1d1"
     inkscape:zoom="49.375"
     inkscape:cx="11.989873"
     inkscape:cy="13.620253"
     inkscape:window-width="2560"
     inkscape:window-height="1377"
     inkscape:window-x="-8"
     inkscape:window-y="-8"
     inkscape:window-maximized="1"
     inkscape:current-layer="svg2" />
  <path
     d="M0 0h24v24H0z"
     fill="none"
     id="path1" />
  <path
     d="M 20.727273,7.6363636 H 17.454545 V 3.2727273 H 2.1818182 C 0.98181818,3.2727273 0,4.2545455 0,5.4545455 V 17.454545 h 2.1818182 c 0,1.81091 1.4618182,3.272728 3.2727273,3.272728 1.810909,0 3.2727272,-1.461818 3.2727272,-3.272728 h 6.5454543 c 0,1.81091 1.461818,3.272728 3.272728,3.272728 1.810909,0 3.272727,-1.461818 3.272727,-3.272728 H 24 V 12 Z M 5.4545455,19.090909 c -0.9054546,0 -1.6363637,-0.730909 -1.6363637,-1.636364 0,-0.905454 0.7309091,-1.636363 1.6363637,-1.636363 0.9054545,0 1.6363636,0.730909 1.6363636,1.636363 0,0.905455 -0.7309091,1.636364 -1.6363636,1.636364 z M 20.181818,9.2727273 22.32,12 H 17.454545 V 9.2727273 Z m -1.636363,9.8181817 c -0.905455,0 -1.636364,-0.730909 -1.636364,-1.636364 0,-0.905454 0.730909,-1.636363 1.636364,-1.636363 0.905454,0 1.636363,0.730909 1.636363,1.636363 0,0.905455 -0.730909,1.636364 -1.636363,1.636364 z"
     id="path2"
     style="fill:#e3b40c;fill-opacity:1;stroke-width:1.09091" />
</svg>
